<?xml version="1.0" ?><svg id="Layer_1_1_" style="enable-background:new 0 0 64 64;" version="1.1" viewBox="0 0 64 64" xml:space="preserve" xmlns="http://www.w3.org/2000/svg" xmlns:xlink="http://www.w3.org/1999/xlink"><g><g><path d="M50,62L50,62c-1.105,0-2-0.895-2-2V50h4v10C52,61.105,51.105,62,50,62z" style="fill:#B27946;"/><path d="M60,30c0-0.967,0.305-1.826,0.778-2.375C61.506,26.781,62,25.762,62,24.647V24c0-1.105-0.895-2-2-2    H40c-1.105,0-2,0.895-2,2v0.647c0,1.115,0.494,2.134,1.222,2.978C39.695,28.174,40,29.033,40,30s-0.305,1.826-0.778,2.375    C38.494,33.219,38,34.238,38,35.353V36c0,1.105,0.895,2,2,2h20c1.105,0,2-0.895,2-2v-0.647c0-1.115-0.494-2.134-1.222-2.978    C60.305,31.826,60,30.967,60,30z" style="fill:#DFB28B;"/><path d="M60,14c0-0.967,0.305-1.826,0.778-2.375C61.506,10.781,62,9.762,62,8.647V8c0-1.105-0.895-2-2-2H40    c-1.105,0-2,0.895-2,2v0.647c0,1.115,0.494,2.134,1.222,2.978C39.695,12.174,40,13.033,40,14s-0.305,1.826-0.778,2.375    C38.494,17.219,38,18.238,38,19.353V20c0,1.105,0.895,2,2,2h20c1.105,0,2-0.895,2-2v-0.647c0-1.115-0.494-2.134-1.222-2.978    C60.305,15.826,60,14.967,60,14z" style="fill:#ECC19C;"/><path d="M14,62L14,62c-1.105,0-2-0.895-2-2V50h4v10C16,61.105,15.105,62,14,62z" style="fill:#B27946;"/><path d="M18,22h-8c-4.418,0-8-3.582-8-8v0c0-4.418,3.582-8,8-8h8c4.418,0,8,3.582,8,8v0    C26,18.418,22.418,22,18,22z" style="fill:#FCD770;"/><path d="M25.727,12.011l0.001-0.049C24.826,8.533,21.713,6,18,6h-8c-3.73,0-6.855,2.557-7.741,6.011    C4.999,12.235,5.086,16,7.994,16c3,0,3-4,5.999-4c3.002,0,3.002,4,6.003,4C22.905,16,22.995,12.246,25.727,12.011z" style="fill:#FF826E;"/><path d="M10,22h8c4.418,0,8,3.582,8,8v0c0,4.418-3.582,8-8,8h-8c-4.418,0-8-3.582-8-8v0    C2,25.582,5.582,22,10,22z" style="fill:#FCD770;"/><path d="M18,22h-8c-4.418,0-8,3.582-8,8c0,0.687,0.096,1.351,0.259,1.987l0.014,0.001    C5.005,31.754,5.095,28,8.003,28c3.002,0,3.002,4,6.003,4c3,0,3-4,5.999-4c2.908,0,2.995,3.765,5.735,3.989    C25.904,31.352,26,30.688,26,30C26,25.582,22.418,22,18,22z" style="fill:#FF826E;"/></g><g><rect height="10" width="2" x="43" y="25"/><rect height="10" width="2" x="55" y="25"/><rect height="10" width="2" x="49" y="25"/><path d="M63,8.647V8c0-1.654-1.346-3-3-3h-9V1h-2v4h-9c-1.654,0-3,1.346-3,3v0.647c0,1.264,0.506,2.52,1.465,3.631    C38.8,12.667,39,13.311,39,14s-0.2,1.333-0.535,1.722C37.506,16.833,37,18.089,37,19.353V20c0,0.771,0.301,1.468,0.78,2    c-0.48,0.532-0.78,1.229-0.78,2v0.647c0,1.264,0.506,2.52,1.465,3.631C38.8,28.667,39,29.311,39,30s-0.2,1.333-0.535,1.722    C37.507,32.833,37,34.088,37,35.353V36c0,1.654,1.346,3,3,3h9v10h-2v11c0,1.654,1.346,3,3,3s3-1.346,3-3V49h-2V39h9    c1.654,0,3-1.346,3-3v-0.647c0-1.265-0.507-2.52-1.465-3.63C61.2,31.333,61,30.689,61,30s0.2-1.333,0.535-1.722    C62.494,27.167,63,25.911,63,24.647V24c0-0.771-0.301-1.468-0.78-2c0.48-0.532,0.78-1.229,0.78-2v-0.647    c0-1.264-0.506-2.52-1.465-3.631C61.2,15.333,61,14.689,61,14s0.2-1.333,0.535-1.722C62.494,11.167,63,9.911,63,8.647z M51,60    c0,0.552-0.449,1-1,1s-1-0.448-1-1v-9h2V60z M61,24.647c0,0.983-0.533,1.807-0.979,2.325C59.372,27.724,59,28.828,59,30    s0.372,2.276,1.021,3.028C60.467,33.546,61,34.369,61,35.353V36c0,0.552-0.449,1-1,1H40c-0.551,0-1-0.448-1-1v-0.647    c0-0.983,0.533-1.807,0.979-2.324C40.628,32.276,41,31.172,41,30s-0.372-2.276-1.021-3.028C39.533,26.454,39,25.63,39,24.647V24    c0-0.551,0.449-1,1-1h20c0.551,0,1,0.449,1,1V24.647z M61,8.647c0,0.983-0.533,1.807-0.979,2.325C59.372,11.724,59,12.828,59,14    s0.372,2.276,1.021,3.028C60.467,17.546,61,18.37,61,19.353V20c0,0.551-0.449,1-1,1H40c-0.551,0-1-0.449-1-1v-0.647    c0-0.983,0.533-1.807,0.979-2.325C40.628,16.276,41,15.172,41,14s-0.372-2.276-1.021-3.028C39.533,10.454,39,9.63,39,8.647V8    c0-0.551,0.449-1,1-1h20c0.551,0,1,0.449,1,1V8.647z"/><rect height="10" width="2" x="43" y="9"/><rect height="10" width="2" x="55" y="9"/><rect height="10" width="2" x="49" y="9"/><path d="M27,14c0-4.962-4.038-9-9-9h-3V1h-2v4h-3c-4.962,0-9,4.038-9,9c0,3.483,1.993,6.505,4.896,8C2.993,23.495,1,26.517,1,30    c0,4.963,4.038,9,9,9h3v10h-2v11c0,1.654,1.346,3,3,3s3-1.346,3-3V49h-2V39h3c4.962,0,9-4.037,9-9c0-3.483-1.993-6.505-4.896-8    C25.007,20.505,27,17.483,27,14z M15,60c0,0.552-0.449,1-1,1s-1-0.448-1-1v-9h2V60z M10,7h8c2.908,0,5.406,1.783,6.462,4.312    c-1.041,0.459-1.704,1.341-2.263,2.087C21.432,14.422,20.951,15,19.997,15s-1.435-0.578-2.202-1.6    c-0.802-1.069-1.801-2.4-3.802-2.4c-2,0-2.998,1.331-3.8,2.4C9.427,14.422,8.947,15,7.994,15c-0.952,0-1.431-0.578-2.197-1.6    c-0.559-0.746-1.221-1.627-2.26-2.086C4.593,8.784,7.091,7,10,7z M18,37h-8c-2.908,0-5.406-1.783-6.462-4.313    c1.041-0.459,1.704-1.341,2.263-2.087C6.568,29.578,7.049,29,8.003,29s1.435,0.578,2.202,1.6c0.802,1.069,1.801,2.4,3.802,2.4    c2,0,2.998-1.331,3.8-2.4c0.766-1.022,1.246-1.6,2.199-1.6c0.952,0,1.431,0.578,2.197,1.6c0.559,0.746,1.221,1.627,2.26,2.086    C23.407,35.216,20.909,37,18,37z M25,30c0,0.222-0.013,0.441-0.033,0.658c-0.389-0.272-0.737-0.689-1.163-1.258    c-0.801-1.069-1.798-2.4-3.797-2.4c-2,0-2.998,1.331-3.8,2.4C15.44,30.422,14.96,31,14.007,31c-0.955,0-1.435-0.578-2.202-1.6    c-0.802-1.069-1.801-2.4-3.801-2.4s-2.999,1.331-3.802,2.4c-0.428,0.571-0.778,0.989-1.168,1.261C3.013,30.443,3,30.223,3,30    c0-3.86,3.14-7,7-7h8C21.86,23,25,26.14,25,30z M18,21h-8c-3.86,0-7-3.14-7-7c0-0.222,0.013-0.441,0.033-0.658    c0.389,0.272,0.737,0.689,1.163,1.258C4.998,15.669,5.995,17,7.994,17c2,0,2.998-1.331,3.8-2.4c0.766-1.022,1.246-1.6,2.199-1.6    c0.955,0,1.435,0.578,2.202,1.6c0.802,1.069,1.801,2.4,3.801,2.4s2.999-1.331,3.802-2.4c0.428-0.571,0.778-0.989,1.168-1.261    C24.987,13.557,25,13.777,25,14C25,17.86,21.86,21,18,21z"/></g></g></svg>